<svg xmlns="http://www.w3.org/2000/svg" viewBox="-6 -4 256 153" width="256" height="256">
  <path fill="#0068e5" d="M 116.144531 120.445312 L 115.945312 120.445312 L 18.128906 119.785156 C 4.398438 119.65625 -4.117188 104.773438 2.882812 92.988281 L 33.902344 40.257812 L 44.394531 22.351562 L 52.378906 8.730469 C 55.878906 2.867188 61.816406 0.0351562 67.753906 0.0351562 C 73.691406 0.0351562 79.898438 2.996094 83.328125 8.988281 L 83.328125 9.058594 L 85.042969 31.113281 L 86.167969 45.066406 C 86.558594 50.136719 88.082031 55.007812 90.519531 59.351562 C 92.964844 63.691406 96.394531 67.382812 100.488281 70.34375 L 127.4375 89.378906 C 129.210938 90.628906 130.667969 92.257812 131.71875 94.160156 C 138.238281 105.980469 129.664062 120.433594 116.132812 120.433594 Z"/>
  <path fill="#0068e5" d="M 241.121094 51.757812 L 210.160156 104.421875 L 199.597656 122.394531 L 191.613281 135.957031 C 188.113281 141.820312 182.175781 144.710938 176.238281 144.710938 L 176.058594 144.710938 C 167.753906 144.671875 160.863281 138.28125 160.222656 130.015625 L 158.949219 113.632812 L 157.828125 99.609375 C 157.433594 94.539062 155.910156 89.667969 153.472656 85.328125 C 151.027344 81.046875 147.597656 77.296875 143.503906 74.40625 L 116.585938 55.390625 C 114.789062 54.128906 113.316406 52.46875 112.253906 50.546875 C 105.722656 38.714844 114.308594 24.230469 127.847656 24.230469 L 128.050781 24.230469 L 225.867188 24.953125 C 239.597656 25.082031 248.109375 39.957031 241.109375 51.75 Z"/>
</svg>
